<?xml version="1.0" standalone="no"?>
<!DOCTYPE svg PUBLIC "-//W3C//DTD SVG 20010904//EN"
 "http://www.w3.org/TR/2001/REC-SVG-20010904/DTD/svg10.dtd">
<svg version="1.0" xmlns="http://www.w3.org/2000/svg"
 width="512.000000pt" height="512.000000pt" viewBox="0 0 512.000000 512.000000"
 preserveAspectRatio="xMidYMid meet">
<metadata>
Created by potrace 1.11, written by Peter Selinger 2001-2013
</metadata>
<g transform="translate(0.000000,512.000000) scale(0.100000,-0.100000)"
fill="#000000" stroke="none">
<path d="M889 5116 c-2 -2 -23 -6 -47 -10 -58 -8 -116 -23 -182 -48 -314 -117
-538 -365 -631 -698 l-24 -85 -2 -1685 c-2 -1443 0 -1696 12 -1760 26 -134 61
-228 130 -345 133 -228 387 -408 655 -464 92 -19 142 -19 1755 -20 1594 -1
1664 0 1752 18 408 84 702 376 793 787 19 87 20 128 17 1784 l-2 1695 -26 85
c-114 373 -362 619 -729 721 l-85 24 -1691 2 c-930 2 -1692 1 -1695 -1z"/>
</g>
</svg>
